# xmcd
#
# Track frame offsets:
# 150
# 23442
# 42995
# 84302
# 118545
# 144097
# 157062
# 199142
# 233722
# 257595
#
# Disc length: 3895 seconds
#
# Revision: 1
# Processed by: cddbd v1.4PL0 Copyright (c) Steve Scherf et al.
# Submitted via: inCDius 2.0b9
#
DISCID=740f350a
DTITLE=Revive - Beautiful Day
DYEAR=1900
DGENRE=
TTITLE0=Broken By
TTITLE1=Let Me Rise
TTITLE2=Hug
TTITLE3=Remember Mercy
TTITLE4=Movin' On Up (Ikon's Movin' Mix)
TTITLE5=Glory To You
TTITLE6=Be With You
TTITLE7=Water from A Vine Leaf
TTITLE8=Frail
TTITLE9=Beautiful Day
EXTD=
EXTT0=
EXTT1=
EXTT2=
EXTT3=
EXTT4=
EXTT5=
EXTT6=
EXTT7=
EXTT8=
EXTT9=
PLAYORDER=
